<mxfile host="app.diagrams.net" agent="Mozilla/5.0 (Windows NT 10.0; Win64; x64) AppleWebKit/537.36 (KHTML, like Gecko) Chrome/141.0.0.0 Safari/537.36" version="28.2.8">
  <diagram name="Trang-1" id="PihUMvQMhH72YgQlzZNn">
    <mxGraphModel dx="1042" dy="596" grid="1" gridSize="10" guides="1" tooltips="1" connect="1" arrows="1" fold="1" page="1" pageScale="1" pageWidth="827" pageHeight="1169" math="0" shadow="0">
      <root>
        <mxCell id="0" />
        <mxCell id="1" parent="0" />
        <mxCell id="fRi8QQ__9xkcZtR-5k9F-21" value="" style="rounded=0;whiteSpace=wrap;html=1;" vertex="1" parent="1">
          <mxGeometry x="299" y="100" width="230" height="530" as="geometry" />
        </mxCell>
        <mxCell id="fRi8QQ__9xkcZtR-5k9F-12" style="rounded=0;orthogonalLoop=1;jettySize=auto;html=1;exitX=0.373;exitY=0.65;exitDx=0;exitDy=0;exitPerimeter=0;" edge="1" parent="1" source="fRi8QQ__9xkcZtR-5k9F-1">
          <mxGeometry relative="1" as="geometry">
            <mxPoint x="852.5" y="169.99848101265817" as="sourcePoint" />
            <mxPoint x="472.5" y="227.72" as="targetPoint" />
          </mxGeometry>
        </mxCell>
        <mxCell id="fRi8QQ__9xkcZtR-5k9F-23" style="rounded=0;orthogonalLoop=1;jettySize=auto;html=1;" edge="1" parent="1" source="fRi8QQ__9xkcZtR-5k9F-1" target="fRi8QQ__9xkcZtR-5k9F-11">
          <mxGeometry relative="1" as="geometry" />
        </mxCell>
        <mxCell id="fRi8QQ__9xkcZtR-5k9F-1" value="admin&lt;div&gt;&lt;br&gt;&lt;/div&gt;" style="shape=umlActor;verticalLabelPosition=bottom;verticalAlign=top;html=1;outlineConnect=0;" vertex="1" parent="1">
          <mxGeometry x="730" y="150" width="30" height="60" as="geometry" />
        </mxCell>
        <mxCell id="fRi8QQ__9xkcZtR-5k9F-14" style="rounded=0;orthogonalLoop=1;jettySize=auto;html=1;entryX=0;entryY=0.5;entryDx=0;entryDy=0;" edge="1" parent="1" source="fRi8QQ__9xkcZtR-5k9F-2" target="fRi8QQ__9xkcZtR-5k9F-11">
          <mxGeometry relative="1" as="geometry" />
        </mxCell>
        <mxCell id="fRi8QQ__9xkcZtR-5k9F-2" value="Người bán hàng" style="shape=umlActor;verticalLabelPosition=bottom;verticalAlign=top;html=1;outlineConnect=0;" vertex="1" parent="1">
          <mxGeometry x="200" y="310" width="30" height="60" as="geometry" />
        </mxCell>
        <mxCell id="fRi8QQ__9xkcZtR-5k9F-15" style="rounded=0;orthogonalLoop=1;jettySize=auto;html=1;" edge="1" parent="1" source="fRi8QQ__9xkcZtR-5k9F-5">
          <mxGeometry relative="1" as="geometry">
            <mxPoint x="360" y="240" as="targetPoint" />
          </mxGeometry>
        </mxCell>
        <mxCell id="fRi8QQ__9xkcZtR-5k9F-17" style="rounded=0;orthogonalLoop=1;jettySize=auto;html=1;" edge="1" parent="1" source="fRi8QQ__9xkcZtR-5k9F-5">
          <mxGeometry relative="1" as="geometry">
            <mxPoint x="350" y="570" as="targetPoint" />
          </mxGeometry>
        </mxCell>
        <mxCell id="fRi8QQ__9xkcZtR-5k9F-18" style="rounded=0;orthogonalLoop=1;jettySize=auto;html=1;entryX=0;entryY=0.5;entryDx=0;entryDy=0;" edge="1" parent="1" source="fRi8QQ__9xkcZtR-5k9F-5" target="fRi8QQ__9xkcZtR-5k9F-11">
          <mxGeometry relative="1" as="geometry" />
        </mxCell>
        <mxCell id="fRi8QQ__9xkcZtR-5k9F-5" value="Người mua hàng" style="shape=umlActor;verticalLabelPosition=bottom;verticalAlign=top;html=1;outlineConnect=0;" vertex="1" parent="1">
          <mxGeometry x="200" y="470" width="30" height="60" as="geometry" />
        </mxCell>
        <mxCell id="fRi8QQ__9xkcZtR-5k9F-7" value="ứng dụng thanh toán" style="shape=umlActor;verticalLabelPosition=bottom;verticalAlign=top;html=1;outlineConnect=0;" vertex="1" parent="1">
          <mxGeometry x="680" y="450" width="30" height="60" as="geometry" />
        </mxCell>
        <mxCell id="fRi8QQ__9xkcZtR-5k9F-8" value="Đăng nhập" style="ellipse;whiteSpace=wrap;html=1;" vertex="1" parent="1">
          <mxGeometry x="354" y="180" width="120" height="80" as="geometry" />
        </mxCell>
        <mxCell id="fRi8QQ__9xkcZtR-5k9F-9" value="tìm sản phẩm" style="ellipse;whiteSpace=wrap;html=1;" vertex="1" parent="1">
          <mxGeometry x="354" y="300" width="120" height="80" as="geometry" />
        </mxCell>
        <mxCell id="fRi8QQ__9xkcZtR-5k9F-10" value="đặt hàng" style="ellipse;whiteSpace=wrap;html=1;" vertex="1" parent="1">
          <mxGeometry x="354" y="530" width="120" height="80" as="geometry" />
        </mxCell>
        <mxCell id="fRi8QQ__9xkcZtR-5k9F-11" value="kiểm tra đơn hàng" style="ellipse;whiteSpace=wrap;html=1;" vertex="1" parent="1">
          <mxGeometry x="354" y="410" width="120" height="80" as="geometry" />
        </mxCell>
        <mxCell id="fRi8QQ__9xkcZtR-5k9F-13" style="rounded=0;orthogonalLoop=1;jettySize=auto;html=1;entryX=0.033;entryY=0.763;entryDx=0;entryDy=0;entryPerimeter=0;" edge="1" parent="1" source="fRi8QQ__9xkcZtR-5k9F-2" target="fRi8QQ__9xkcZtR-5k9F-8">
          <mxGeometry relative="1" as="geometry" />
        </mxCell>
        <mxCell id="fRi8QQ__9xkcZtR-5k9F-16" style="rounded=0;orthogonalLoop=1;jettySize=auto;html=1;entryX=0.02;entryY=0.683;entryDx=0;entryDy=0;entryPerimeter=0;" edge="1" parent="1" source="fRi8QQ__9xkcZtR-5k9F-5" target="fRi8QQ__9xkcZtR-5k9F-9">
          <mxGeometry relative="1" as="geometry" />
        </mxCell>
        <mxCell id="fRi8QQ__9xkcZtR-5k9F-22" value="app giao đồ ăn nhanh" style="text;html=1;whiteSpace=wrap;strokeColor=none;fillColor=none;align=center;verticalAlign=middle;rounded=0;" vertex="1" parent="1">
          <mxGeometry x="337.5" y="110" width="135" height="30" as="geometry" />
        </mxCell>
        <mxCell id="fRi8QQ__9xkcZtR-5k9F-26" style="rounded=0;orthogonalLoop=1;jettySize=auto;html=1;entryX=1.033;entryY=0.597;entryDx=0;entryDy=0;entryPerimeter=0;" edge="1" parent="1" source="fRi8QQ__9xkcZtR-5k9F-7" target="fRi8QQ__9xkcZtR-5k9F-10">
          <mxGeometry relative="1" as="geometry" />
        </mxCell>
      </root>
    </mxGraphModel>
  </diagram>
</mxfile>
